# xmcd CD database file
#
# Track frame offsets:
#	150
#	13320
#	29658
#	48688
#	60430
#	74564
#	92597
#	105064
#	120380
#	133995
#	151611
#	162250
#	178506
#	201318
#	223467
#	234864
#	247184
#	259951
#	279354
#	292319
#	304561
#
# Disc length: 4680 seconds
#
# Revision: 0
# Processed by: cddbd v1.5.2PL0 Copyright (c) Steve Scherf et al.
# Submitted via: CDex 1.70beta2
#
DISCID=3a124615
DTITLE=Nina Simone - Blue For You
DYEAR=1998
DGENRE=Blues
TTITLE0=Feeling Good
TTITLE1=My Baby Just Cares For Me 
TTITLE2=I Loves You Porgy 
TTITLE3=I Put A Spell On You 
TTITLE4=I Wish I Knew How It Would Feel To Be Free
TTITLE5=Blues For Mama 
TTITLE6=Don't Let Me Be Misunderstood
TTITLE7=Love Me Or Leave Me 
TTITLE8=Nobody's Fault But Mine 
TTITLE9=I Shall Be Released 
TTITLE10=Ain't Got No (I Got Life) 
TTITLE11=Here Comes The Sun 
TTITLE12=Mr Bojangles 
TTITLE13=Just Like A Woman 
TTITLE14=Backlash Blues 
TTITLE15=In The Morning 
TTITLE16=Go To Hell 
TTITLE17=Suzanne 
TTITLE18=Since I Fell For You 
TTITLE19=To Love Somebody 
TTITLE20=Hidden Track
EXTD=YEAR: 1998
EXTT0=
EXTT1=
EXTT2=
EXTT3=
EXTT4=
EXTT5=
EXTT6=
EXTT7=
EXTT8=
EXTT9=
EXTT10=
EXTT11=
EXTT12=
EXTT13=
EXTT14=
EXTT15=
EXTT16=
EXTT17=
EXTT18=
EXTT19=
EXTT20=
PLAYORDER=
